Land_normalized_precision_landing09_filtered_grf
version=1
nRows=17
nColumns=37
inDegrees=yes
endheader
time		1_ground_force_vx		1_ground_force_vy		1_ground_force_vz		1_ground_force_px		1_ground_force_py		1_ground_force_pz		1_ground_torque_x		1_ground_torque_y		1_ground_torque_z		2_ground_force_vx		2_ground_force_vy		2_ground_force_vz		2_ground_force_px		2_ground_force_py		2_ground_force_pz		2_ground_torque_x		2_ground_torque_y		2_ground_torque_z		3_ground_force_vx		3_ground_force_vy		3_ground_force_vz		3_ground_force_px		3_ground_force_py		3_ground_force_pz		3_ground_torque_x		3_ground_torque_y		3_ground_torque_z		4_ground_force_vx		4_ground_force_vy		4_ground_force_vz		4_ground_force_px		4_ground_force_py		4_ground_force_pz		4_ground_torque_x		4_ground_torque_y		4_ground_torque_z		
1.487833		-12.093336		949.097335		141.212840		0.090422		0.000000		0.306614		-0.228840		17.960146		2.672247		34.157821		858.774229		149.548898		-0.162738		0.000000		0.304097		0.961121		24.163753		4.207954		1.096049		0.225372		0.183628		0.381022		1.275685		1.879336		0.015462		0.014010		0.032212		-1.652103		-0.387518		0.158179		-0.351465		1.268561		1.869704		0.006753		-0.019477		-0.015420		
1.490535		-14.760311		957.070506		135.849208		0.091555		0.000000		0.307541		-0.273515		17.735108		2.517376		33.868419		865.146904		146.960960		-0.162919		0.000000		0.304901		0.928359		23.714327		4.028315		1.089670		0.107311		0.159285		0.381027		1.275690		1.879395		0.014805		0.010625		0.033348		-1.779691		-0.453533		0.106999		-0.351461		1.268570		1.869737		0.005594		-0.016825		-0.017800		
1.493237		-17.443498		963.025382		131.040398		0.092600		0.000000		0.308364		-0.316154		17.454822		2.375123		34.149267		870.398861		144.477065		-0.163201		0.000000		0.305723		0.914705		23.314108		3.869913		1.110138		-0.002003		0.100311		0.381039		1.275699		1.879444		0.014759		0.006725		0.033509		-1.838382		-0.492828		0.028037		-0.351461		1.268577		1.869766		0.004296		-0.013983		-0.019400		
1.495939		-20.074867		967.044067		126.873499		0.093551		0.000000		0.309087		-0.355729		17.136330		2.248245		34.950315		874.422616		141.947895		-0.163578		0.000000		0.306574		0.916811		22.937745		3.723566		1.159100		-0.083126		0.023339		0.381056		1.275707		1.879482		0.015133		0.002844		0.032888		-1.836142		-0.495038		-0.066521		-0.351461		1.268582		1.869791		0.003371		-0.011605		-0.019965		
1.498641		-22.603398		969.258682		123.438081		0.094410		0.000000		0.309727		-0.391804		16.801278		2.139703		36.180712		877.166922		139.189317		-0.164038		0.000000		0.307473		0.930188		22.551626		3.578516		1.225136		-0.128549		-0.054618		0.381071		1.275713		1.879512		0.015560		-0.000352		0.031721		-1.794107		-0.460402		-0.156529		-0.351462		1.268583		1.869811		0.003295		-0.010156		-0.019486		
1.501343		-24.986693		969.901886		120.813576		0.095185		0.000000		0.310310		-0.424312		16.470611		2.051629		37.769166		878.651662		136.090105		-0.164576		0.000000		0.308430		0.951446		22.134339		3.428293		1.289246		-0.144050		-0.122185		0.381082		1.275716		1.879537		0.015652		-0.002259		0.030269		-1.740187		-0.398670		-0.219105		-0.351463		1.268580		1.869830		0.004307		-0.009687		-0.018229		
1.504045		-27.188654		969.253345		119.069088		0.095880		0.000000		0.310854		-0.453270		16.158759		1.985043		39.717144		878.915710		132.680768		-0.165192		0.000000		0.309441		0.980159		21.690377		3.274376		1.333079		-0.143245		-0.176487		0.381088		1.275716		1.879559		0.015202		-0.002529		0.028756		-1.699195		-0.323029		-0.236641		-0.351463		1.268576		1.869847		0.006320		-0.009844		-0.016643		
1.506747		-29.181127		967.629172		118.252080		0.096498		0.000000		0.311360		-0.478681		15.872933		1.939801		42.085440		877.998177		129.144001		-0.165889		0.000000		0.310490		1.018600		21.250511		3.125732		1.344540		-0.139637		-0.220900		0.381087		1.275715		1.879582		0.014303		-0.001195		0.027326		-1.686713		-0.244886		-0.203177		-0.351462		1.268573		1.869866		0.008942		-0.010057		-0.015244		
1.509449		-30.948248		965.385129		118.353204		0.097043		0.000000		0.311828		-0.500671		15.617713		1.914682		44.924693		875.965624		125.762701		-0.166664		0.000000		0.311542		1.069789		20.859379		2.994791		1.321790		-0.138788		-0.260626		0.381081		1.275715		1.879608		0.013275		0.001270		0.026001		-1.704723		-0.170321		-0.128806		-0.351460		1.268569		1.869887		0.011628		-0.009871		-0.014452		
1.512152		-32.474347		962.853864		119.335769		0.097519		0.000000		0.312248		-0.519370		15.399211		1.908571		48.234090		872.869077		122.827721		-0.167507		0.000000		0.312563		1.136073		20.559060		2.893017		1.272067		-0.135754		-0.298324		0.381072		1.275718		1.879640		0.012426		0.004076		0.024711		-1.742838		-0.100241		-0.035847		-0.351458		1.268569		1.869907		0.013908		-0.009181		-0.014474		
1.514854		-33.756608		960.335758		121.090951		0.097927		0.000000		0.312611		-0.535039		15.221246		1.919280		51.922215		868.791515		120.533783		-0.168395		0.000000		0.313524		1.217494		20.371805		2.826330		1.210411		-0.120007		-0.333661		0.381063		1.275724		1.879677		0.011857		0.006252		0.023327		-1.781592		-0.033491		0.046892		-0.351455		1.268570		1.869929		0.015558		-0.008264		-0.015230		
1.517556		-34.812720		958.072113		123.442771		0.098275		0.000000		0.312914		-0.548031		15.082248		1.943270		55.844908		863.829576		118.931386		-0.169303		0.000000		0.314409		1.312077		20.295668		2.794291		1.154049		-0.084204		-0.365567		0.381056		1.275732		1.879719		0.011412		0.006903		0.021700		-1.800972		0.029983		0.094092		-0.351454		1.268574		1.869949		0.016615		-0.007540		-0.016458		
1.520258		-35.697034		956.255804		126.130150		0.098575		0.000000		0.313167		-0.558986		14.974200		1.975095		59.856283		858.109319		117.925142		-0.170212		0.000000		0.315220		1.416533		20.307529		2.790750		1.116776		-0.031292		-0.393881		0.381054		1.275738		1.879764		0.010823		0.005459		0.019726		-1.788680		0.088404		0.091252		-0.351455		1.268579		1.869968		0.017270		-0.007258		-0.017849		
1.522960		-36.504727		955.040655		128.807436		0.098851		0.000000		0.313397		-0.569006		14.886405		2.007747		63.859208		851.809906		117.303416		-0.171114		0.000000		0.315975		1.527146		20.370369		2.805219		1.103798		0.023676		-0.418187		0.381056		1.275740		1.879808		0.009976		0.001944		0.017449		-1.745276		0.139059		0.039545		-0.351459		1.268583		1.869985		0.017688		-0.007270		-0.019170		
1.525662		-37.351656		954.593116		131.078039		0.099128		0.000000		0.313634		-0.579519		14.810726		2.033704		67.823650		845.137430		116.812120		-0.172015		0.000000		0.316706		1.640726		20.444658		2.825795		1.112038		0.059148		-0.435247		0.381061		1.275734		1.879847		0.009116		-0.003071		0.015128		-1.680333		0.178077		-0.047166		-0.351466		1.268585		1.870000		0.017875		-0.007080		-0.020264		
1.528364		-38.348823		955.090338		132.559616		0.099426		0.000000		0.313904		-0.591951		14.742759		2.046188		71.761183		838.322742		116.194539		-0.172931		0.000000		0.317445		1.754222		20.492949		2.840396		1.133144		0.057300		-0.439014		0.381069		1.275723		1.879879		0.008838		-0.008582		0.013212		-1.606773		0.199803		-0.145638		-0.351475		1.268587		1.870014		0.017712		-0.006113		-0.021014		
1.531066		-39.580816		956.748825		132.939757		0.099760		0.000000		0.314228		-0.607425		14.682708		2.040155		75.672428		831.573976		115.230692		-0.173872		0.000000		0.318225		1.863937		20.483017		2.838319		1.159060		0.012653		-0.423229		0.381073		1.275708		1.879899		0.009816		-0.013507		0.012187		-1.535578		0.197336		-0.231479		-0.351487		1.268588		1.870027		0.017072		-0.003997		-0.021325		
